<svg width="512" xmlns='http://www.w3.org/2000/svg' style='font-size:initial;' class="pikchr" viewBox="0 0 517.766 379.44">
<path d="M2.16,377.28L515.606,377.28L515.606,2.16L2.16,2.16Z"  style="fill:rgb(240,240,240);stroke-width:2.16;stroke:rgb(0,0,0);" />
<path d="M19.3248,58.32L225.648,58.32L225.648,28.08L19.3248,28.08Z"  style="fill:rgb(255,228,196);stroke-width:2.16;stroke:rgb(0,0,0);" />
<text x="122.486" y="43.2" text-anchor="middle" fill="rgb(0,0,0)" dominant-baseline="central">Sony Access Controller</text>
<polygon points="122.486,112.32 118.166,100.8 126.806,100.8" style="fill:rgb(0,0,0)"/>
<path d="M122.486,58.32L122.486,106.56"  style="fill:none;stroke-width:2.16;stroke:rgb(0,0,0);" />
<text x="122.486" y="85.32" text-anchor="middle" fill="rgb(0,0,0)" dominant-baseline="central">USB  cable</text>
<path d="M42.7104,162.72L202.262,162.72L202.262,112.32L42.7104,112.32Z"  style="fill:rgb(255,228,196);stroke-width:2.16;stroke:rgb(0,0,0);" />
<text x="122.486" y="127.44" text-anchor="middle" fill="rgb(0,0,0)" dominant-baseline="central">HID remapper</text>
<text x="122.486" y="147.6" text-anchor="middle" fill="rgb(0,0,0)" dominant-baseline="central">RP2040 USB host</text>
<polygon points="122.486,216.72 118.166,205.2 126.806,205.2" style="fill:rgb(0,0,0)"/>
<path d="M122.486,162.72L122.486,210.96"  style="fill:none;stroke-width:2.16;stroke:rgb(0,0,0);" />
<text x="122.486" y="189.72" text-anchor="middle" fill="rgb(0,0,0)" dominant-baseline="central">USB  cable</text>
<path d="M22.0896,246.96L222.883,246.96L222.883,216.72L22.0896,216.72Z"  style="fill:rgb(255,228,196);stroke-width:2.16;stroke:rgb(0,0,0);" />
<text x="122.486" y="231.84" text-anchor="middle" fill="rgb(0,0,0)" dominant-baseline="central">MayFlash Magic-S Pro</text>
<polygon points="222.883,231.84 234.403,227.52 234.403,236.16" style="fill:rgb(0,0,0)"/>
<path d="M228.643,231.84L330.883,231.84"  style="fill:none;stroke-width:2.16;stroke:rgb(0,0,0);" />
<text x="276.883" y="220.14" text-anchor="middle" fill="rgb(0,0,0)" dominant-baseline="central">Bluetooth</text>
<text x="276.883" y="243.54" text-anchor="middle" fill="rgb(0,0,0)" dominant-baseline="central"></text>
<path d="M330.883,246.96L494.006,246.96L494.006,216.72L330.883,216.72Z"  style="fill:rgb(255,228,196);stroke-width:2.16;stroke:rgb(0,0,0);" />
<text x="412.445" y="231.84" text-anchor="middle" fill="rgb(0,0,0)" dominant-baseline="central">Sony DualShock 4</text>
<polygon points="122.486,300.96 118.166,289.44 126.806,289.44" style="fill:rgb(0,0,0)"/>
<path d="M122.486,246.96L122.486,295.2"  style="fill:none;stroke-width:2.16;stroke:rgb(0,0,0);" />
<text x="122.486" y="273.96" text-anchor="middle" fill="rgb(0,0,0)" dominant-baseline="central">USB  cable</text>
<path d="M38.1024,331.2L206.87,331.2L206.87,300.96L38.1024,300.96Z"  style="fill:rgb(255,228,196);stroke-width:2.16;stroke:rgb(0,0,0);" />
<text x="122.486" y="316.08" text-anchor="middle" fill="rgb(0,0,0)" dominant-baseline="central">Sony PlayStation 4</text>
</svg>

